<?xml version="1.0" encoding="UTF-8"?>
<svg width="512" height="512" viewBox="0 0 512 512" xmlns="http://www.w3.org/2000/svg">
  <rect width="512" height="512" fill="white"/>
  <!-- Hull -->
  <rect x="100" y="230" width="312" height="80" rx="40" ry="40" fill="black"/>
  <!-- Dome cockpit -->
  <circle cx="256" cy="190" r="50" fill="black"/>
  <!-- Antenna / sensor mast -->
  <rect x="250" y="120" width="12" height="70" fill="black"/>
  <circle cx="256" cy="110" r="12" fill="black"/>
  <!-- Sampling arm / sensor at front -->
  <rect x="140" y="270" width="8" height="60" fill="black"/>
  <circle cx="144" cy="335" r="14" fill="black"/>
  <!-- Propeller stylized at back -->
  <circle cx="410" cy="270" r="20" fill="black"/>
  <circle cx="410" cy="270" r="10" fill="white"/>
  <g fill="black">
    <rect x="405" y="235" width="10" height="30" rx="3" ry="3"/>
    <rect x="390" y="268" width="40" height="10" rx="3" ry="3" transform="rotate(90 410 273)"/>
    <rect x="405" y="235" width="10" height="30" rx="3" ry="3" transform="rotate(45 410 250)"/>
    <rect x="405" y="235" width="10" height="30" rx="3" ry="3" transform="rotate(-45 410 250)"/>
  </g>
</svg>
